<svg xmlns="http://www.w3.org/2000/svg" width="226" height="30" fill="none"><path fill="#F9FAFB" d="M19.8 12c0 1.6-.3 3-1 4.2a7.7 7.7 0 0 1-3.2 3c-1.4.8-3.2 1.2-5.3 1.2h-4v9.3H0v-26h10.3c2 0 3.8.3 5.2 1 1.5.8 2.5 1.8 3.2 3 .8 1.3 1.1 2.7 1.1 4.4Zm-10 3.3c1.2 0 2-.3 2.7-.8.6-.6.9-1.4.9-2.4s-.3-1.9-1-2.5c-.5-.5-1.4-.8-2.6-.8H6.3v6.5h3.5ZM26.3 6.9a4 4 0 0 1-2.7-1c-.7-.7-1-1.5-1-2.5s.3-1.8 1-2.4c.7-.7 1.6-1 2.7-1 1 0 2 .3 2.7 1 .7.6 1 1.5 1 2.4 0 1-.3 1.8-1 2.5-.7.6-1.6 1-2.7 1ZM29.5 9v20.7H23V9h6.4ZM46.6 8.8c2.5 0 4.4.8 5.8 2.4a9 9 0 0 1 2.2 6.4v12.1h-6.3V18.5c0-1.4-.4-2.5-1-3.3a3.8 3.8 0 0 0-3-1.1c-1.2 0-2.1.4-2.8 1.1-.8.8-1.1 1.9-1.1 3.3v11.2H34V9h6.4v2.8c.6-1 1.5-1.7 2.6-2.2a8 8 0 0 1 3.6-.8ZM71.6 29.7 65.3 21v8.7H59V2.3h6.3v15.1L71.6 9h7.8l-8.6 10.4 8.7 10.3h-7.9ZM109.6 12c0 1.6-.4 3-1 4.2a7.7 7.7 0 0 1-3.2 3c-1.5.8-3.3 1.2-5.4 1.2h-4v9.3h-6.2v-26H100c2 0 3.8.3 5.3 1 1.4.8 2.5 1.8 3.2 3 .7 1.3 1 2.7 1 4.4Zm-10 3.3c1.1 0 2-.3 2.6-.8.6-.6 1-1.4 1-2.4s-.4-1.9-1-2.5c-.6-.5-1.5-.8-2.7-.8h-3.4v6.5h3.4ZM132.4 19c0 .6 0 1.2-.2 1.9H118c.1 1.3.5 2.3 1.2 3 .8.6 1.7 1 2.7 1 1.6 0 2.7-.7 3.3-2h6.8c-.4 1.3-1 2.5-2 3.6-.8 1.1-2 2-3.3 2.6-1.3.6-2.9.9-4.5.9-2 0-3.9-.4-5.4-1.3a9.2 9.2 0 0 1-3.8-3.7c-.8-1.6-1.3-3.5-1.3-5.6 0-2.2.4-4 1.3-5.7a9.2 9.2 0 0 1 3.7-3.7c1.6-.9 3.4-1.3 5.5-1.3 2 0 3.7.4 5.3 1.3a9 9 0 0 1 3.6 3.6c1 1.5 1.4 3.3 1.4 5.4Zm-6.5-1.6c0-1.1-.4-2-1.1-2.6a4 4 0 0 0-2.8-1c-1 0-2 .3-2.7 1-.7.5-1.2 1.4-1.4 2.6h8ZM142 2.3v27.4h-6.3V2.3h6.3ZM149.8 6.9a4 4 0 0 1-2.7-1c-.7-.7-1-1.5-1-2.5s.3-1.8 1-2.4c.7-.7 1.6-1 2.7-1s2 .3 2.7 1c.7.6 1 1.5 1 2.4 0 1-.3 1.8-1 2.5-.7.6-1.6 1-2.7 1ZM153 9v20.7h-6.4V9h6.4ZM156.3 19.4c0-2.2.4-4 1.3-5.7a9.3 9.3 0 0 1 3.7-3.7 11 11 0 0 1 5.4-1.3c2.6 0 4.7.7 6.4 2a9.6 9.6 0 0 1 3.5 5.8h-6.8c-.5-1.6-1.6-2.4-3.2-2.4-1.2 0-2.1.5-2.8 1.4-.7.9-1 2.2-1 3.9 0 1.6.3 3 1 3.9.7.8 1.6 1.3 2.8 1.3 1.6 0 2.7-.8 3.3-2.4h6.7A9.7 9.7 0 0 1 173 28c-1.7 1.4-3.9 2.1-6.4 2.1-2 0-3.9-.4-5.4-1.3a9.3 9.3 0 0 1-3.7-3.7c-.9-1.6-1.3-3.5-1.3-5.6ZM178.7 19.3c0-2.1.4-4 1.2-5.6.8-1.6 2-2.8 3.3-3.7 1.4-.9 3-1.3 4.6-1.3 1.5 0 2.8.3 3.8.9 1.2.6 2 1.4 2.6 2.3V9h6.3v20.7h-6.3v-3c-.6 1-1.5 1.8-2.6 2.4-1 .6-2.3.9-3.8.9-1.7 0-3.2-.4-4.6-1.3a9.4 9.4 0 0 1-3.3-3.7c-.8-1.7-1.2-3.6-1.2-5.7Zm15.5 0c0-1.5-.4-2.8-1.3-3.7-.9-.9-2-1.4-3.2-1.4-1.3 0-2.3.5-3.2 1.4-.9.9-1.3 2.1-1.3 3.7s.4 2.9 1.3 3.8c.9 1 2 1.4 3.2 1.4 1.2 0 2.3-.5 3.2-1.4.9-1 1.3-2.2 1.3-3.7ZM217.7 8.8c2.4 0 4.4.8 5.8 2.4a9 9 0 0 1 2.2 6.4v12.1h-6.3V18.5c0-1.4-.4-2.5-1-3.3a3.8 3.8 0 0 0-3-1.1c-1.2 0-2.2.4-2.9 1.1-.7.8-1 1.9-1 3.3v11.2H205V9h6.4v2.8c.6-1 1.5-1.7 2.6-2.2a8 8 0 0 1 3.6-.8Z"/></svg>